<svg viewBox="377.736 257.8561 353.2596 102.0452" width="5000" height="1444.3372522643403" xmlns="http://www.w3.org/2000/svg" xmlns:xlink="http://www.w3.org/1999/xlink" preserveAspectRatio="none"><defs></defs><style>.aD6z1nYkhcolor {fill:#000000;fill-opacity:1;}.aIptOCySncolors-0 {fill:#7A63FF;fill-opacity:1;}.aIptOCySncolors-1 {fill:#74E0EF;fill-opacity:1;}.aIptOCySncolors-2 {fill:#FFFFFF;fill-opacity:1;}.aIptOCySncolors-3 {fill:#969696;fill-opacity:1;}.aIptOCySncolors-4 {fill:#C1F7FF;fill-opacity:1;}.aIptOCySncolors-5 {fill:#EF75FD;fill-opacity:1;}.aIptOCySncolors-6 {fill:#555555;fill-opacity:1;}.aIptOCySncolors-7 {fill:#B4B4B4;fill-opacity:1;}.icon3-str {stroke:#FFFFFF;stroke-opacity:1;}</style><g opacity="1" transform="rotate(0 377.736 257.8561)">
<svg width="84.3684" height="102.0452" x="377.736" y="257.8561" version="1.1" preserveAspectRatio="none" viewBox="10.483997344970703 2.204000234603882 79.03300476074219 95.5919952392578">
  <g transform="matrix(1 0 0 1 0 0)" class="aIptOCySncolors-0"><path d="M89.517,26.603c0-0.35-0.183-0.673-0.481-0.854l-12.84-7.797c-0.005-0.003-0.01-0.004-0.015-0.007  s-0.009-0.007-0.014-0.01c-0.003-0.002-0.007-0.003-0.011-0.005l-12.737-7.734c-0.021-0.017-0.039-0.036-0.062-0.051L50.516,2.348  c-0.005-0.003-0.01-0.004-0.015-0.006c-0.005-0.003-0.009-0.008-0.014-0.011c-0.035-0.02-0.073-0.028-0.109-0.043  c-0.041-0.018-0.08-0.038-0.123-0.05c-0.041-0.011-0.083-0.013-0.125-0.018c-0.044-0.007-0.088-0.016-0.133-0.016  s-0.088,0.009-0.133,0.016c-0.042,0.005-0.084,0.007-0.125,0.019c-0.042,0.011-0.082,0.031-0.123,0.048  c-0.036,0.016-0.074,0.024-0.109,0.044c-0.006,0.003-0.01,0.008-0.015,0.011s-0.01,0.003-0.015,0.006l-12.84,7.797  c-0.008,0.005-0.014,0.013-0.021,0.018l-12.812,7.779c-0.018,0.011-0.031,0.026-0.048,0.039l-12.792,7.768  c-0.299,0.182-0.48,0.505-0.48,0.854c0,0.002,0.001,0.004,0.001,0.007c0,0.002-0.001,0.004-0.001,0.006V42.21  c0,0.001,0,0.002,0,0.003s0,0.002,0,0.003V57.81v15.594c0,0.089,0.012,0.176,0.034,0.26c0.007,0.025,0.021,0.049,0.03,0.074  c0.021,0.056,0.039,0.112,0.069,0.164c0.015,0.026,0.036,0.048,0.054,0.073c0.032,0.045,0.063,0.091,0.103,0.131  c0.024,0.024,0.054,0.042,0.08,0.064c0.036,0.029,0.069,0.063,0.11,0.088l12.794,7.77c0.017,0.012,0.029,0.026,0.046,0.037  l12.841,7.797c0.008,0.005,0.018,0.007,0.026,0.012l12.807,7.776c0.008,0.005,0.017,0.006,0.024,0.011  c0.003,0.001,0.005,0.004,0.008,0.006c0.03,0.017,0.062,0.024,0.093,0.037c0.047,0.021,0.092,0.044,0.141,0.058  c0.065,0.018,0.133,0.023,0.201,0.027c0.018,0.001,0.034,0.007,0.053,0.007h0.001c0.001,0,0.002,0,0.002,0  c0.018,0,0.035-0.006,0.053-0.007c0.068-0.004,0.136-0.01,0.201-0.027c0.048-0.013,0.091-0.036,0.137-0.056  c0.031-0.014,0.065-0.021,0.097-0.039c0.003-0.002,0.005-0.005,0.009-0.007c0.007-0.004,0.016-0.006,0.022-0.01l12.807-7.776  c0.008-0.005,0.018-0.007,0.026-0.012l12.84-7.797c0.012-0.007,0.02-0.018,0.03-0.024l12.814-7.782  c0.042-0.025,0.075-0.059,0.112-0.09c0.025-0.021,0.055-0.039,0.078-0.062c0.037-0.037,0.065-0.081,0.096-0.124  c0.021-0.027,0.044-0.052,0.061-0.081c0.027-0.048,0.045-0.1,0.064-0.151c0.011-0.029,0.026-0.056,0.035-0.086  c0.021-0.084,0.034-0.171,0.034-0.26V57.81V42.216c0-0.001,0-0.002,0-0.003s0-0.002,0-0.003V26.615c0-0.002-0.001-0.004-0.001-0.006  C89.516,26.606,89.517,26.604,89.517,26.603z M87.517,59.587v12.039l-9.913-6.02L87.517,59.587z M22.396,65.606l-9.913,6.02V59.587  L22.396,65.606z M14.039,39.487l-1.556,0.945v-12.04l9.913,6.02L14.039,39.487z M86.59,57.81l-9.913,6.02V51.79l9.541,5.794  L86.59,57.81z M17.125,55.553l6.198-3.763v12.039l-9.913-6.02L17.125,55.553z M60.91,73.403l-9.913,6.021v-12.04L60.91,73.403z   M48.997,79.424l-9.914-6.021l9.914-6.02V79.424z M26.25,34.412l9.906-6.016v12.031l-0.799-0.484L26.25,34.412z M72.914,34.92  l-9.077,5.512V28.393l9.913,6.02L72.914,34.92z M60.91,57.8l-9.913,6.021V51.78l3.091,1.877L60.91,57.8z M48.997,63.82L39.083,57.8  l9.914-6.02V63.82z M39.083,42.206l9.914-6.02v12.039L39.083,42.206z M38.163,40.425V28.394l9.907,6.016L38.163,40.425z   M38.163,56.019V43.987l9.906,6.016l-2.52,1.53L38.163,56.019z M50.997,48.226V36.187l9.913,6.02l-1.999,1.214L50.997,48.226z   M61.837,40.429l-9.914-6.021l9.914-6.019V40.429z M26.25,50.013l9.906-6.016v12.031l-7.968-4.839L26.25,50.013z M38.163,59.591  l9.907,6.016l-9.907,6.016V59.591z M61.837,56.022l-6.183-3.754l-3.73-2.266l6.536-3.969l3.377-2.051V56.022z M64.764,42.21  l9.913-6.02v12.039L64.764,42.21z M48.997,32.626l-9.914-6.02l9.914-6.02V32.626z M25.323,36.189l9.913,6.021l-9.913,6.02V36.189z   M25.323,51.79l6.285,3.816l3.628,2.203l-9.913,6.02V51.79z M36.156,59.591v12.031l-9.906-6.016L36.156,59.591z M61.837,71.626  l-9.914-6.02l9.914-6.02V71.626z M63.837,59.587l9.913,6.02l-9.913,6.02V59.587z M63.837,56.032V43.993l9.913,6.02l-9.508,5.773  L63.837,56.032z M76.677,36.19l9.913,6.02l-9.913,6.02V36.19z M61.837,24.829l-3.377-2.051l-6.537-3.97l9.914-6.02V24.829z   M60.91,26.606l-9.913,6.02V20.587l7.914,4.806L60.91,26.606z M38.163,24.824V12.793l9.907,6.017L38.163,24.824z M23.323,48.229  l-9.913-6.02l9.913-6.021V48.229z M64.764,57.81l0.372-0.226l9.541-5.794v12.039L64.764,57.81z M25.323,20.583l9.913,6.02  l-9.913,6.021V20.583z M12.483,56.032V43.993l9.913,6.02l-1.412,0.857L12.483,56.032z M25.323,67.384l9.913,6.02l-9.913,6.021  V67.384z M38.163,75.185l9.907,6.017l-9.907,6.016V75.185z M61.833,87.217l-9.906-6.016l9.906-6.017V87.217z M74.677,67.384v12.04  l-9.913-6.021L74.677,67.384z M77.604,50.013l9.913-6.02v12.039l-0.405-0.246L77.604,50.013z M87.517,40.432l-9.077-5.512  l-0.836-0.508l9.913-6.02V40.432z M74.677,32.623l-9.909-6.019l9.909-6.018V32.623z M63.837,24.825V12.789l9.91,6.019L63.837,24.825  z M76.677,32.623v-12.04l9.913,6.02L76.677,32.623z M50.997,4.979L60.91,11l-9.913,6.02V4.979z M48.997,4.979v12.04L39.083,11  L48.997,4.979z M36.156,12.781v12.031l-9.906-6.016L36.156,12.781z M23.323,20.583v12.04l-9.913-6.021L23.323,20.583z   M23.323,67.384v12.04l-9.913-6.021L23.323,67.384z M36.156,75.194v12.031L26.25,81.21L36.156,75.194z M48.997,95.018l-9.914-6.02  l9.914-6.02V95.018z M51,95.018V82.979l9.913,6.02L51,95.018z M63.84,87.226V75.194l9.906,6.016L63.84,87.226z M76.677,79.424  v-12.04l9.913,6.02L76.677,79.424z"></path></g>
</svg>
</g><g opacity="1" transform="rotate(0 481.0556 279.7229)">
<svg width="249.94" height="52.4157" x="481.0556" y="279.7229" version="1.1" preserveAspectRatio="none" viewBox="0.72 -27.72 163.08 34.199999999999996">
  <g transform="matrix(1 0 0 1 0 0)" class="aD6z1nYkhcolor"><path id="id-D6z1nYkh9" d="M10.28-22.84L10.28 0L7.68 0L7.68-22.84L0.72-22.84L0.72-25L17.20-25L17.20-22.84L10.28-22.84Z M28.84-20.32Q31.44-20.32 32.88-19.84Q34.32-19.36 34.92-18.28Q35.52-17.20 35.52-15.24L35.52-15.24L35.52 0L34.44 0L33.68-2Q32.28-0.80 30.54-0.24Q28.80 0.32 26.40 0.32L26.40 0.32Q23.20 0.32 21.90-0.96Q20.60-2.24 20.60-5.40L20.60-5.40Q20.60-8.48 21.32-9.70Q22.04-10.92 24.36-11.30Q26.68-11.68 32.56-11.68L32.56-11.68L32.96-11.68L32.96-17.56Q31.12-18.12 28.20-18.12L28.20-18.12Q25.08-18.12 21.84-17.16L21.84-17.16L21.48-19.20Q22.64-19.68 24.78-20Q26.92-20.32 28.84-20.32L28.84-20.32ZM29.60-1.92Q31.56-1.92 32.26-2.46Q32.96-3 32.96-4.52L32.96-4.52L32.96-9.56L26.36-9.56Q24.36-9.56 23.64-9.02Q22.92-8.48 22.92-7L22.92-7L22.92-1.92L29.60-1.92Z M59.08-10Q59.08-5.40 58.56-3.30Q58.04-1.20 56.58-0.44Q55.12 0.32 51.88 0.32L51.88 0.32L51.84 0.32Q49.76 0.32 48.60 0.16L48.60 0.16Q46.44-0.04 43.68-0.80L43.68-0.80L43.68-26.80L46.28-27.24L46.28-19.48Q47.12-20.12 48.54-20.36Q49.96-20.60 52.36-20.60L52.36-20.60Q55.32-20.60 56.70-19.80Q58.08-19 58.58-16.82Q59.08-14.64 59.08-10L59.08-10ZM56.44-2.68L56.44-18.28L48.20-18.28Q47.04-18.28 46.66-18.10Q46.28-17.92 46.28-17.32L46.28-17.32L46.28-2L54.48-2Q55.60-2 56.02-2.14Q56.44-2.28 56.44-2.68L56.44-2.68Z M68.40-2Q69.44-1.88 70.20-1.84L70.20-1.84L70-0.04Q68.88 0.32 68 0.32L68 0.32Q65.80 0.32 65.80-2.20L65.80-2.20L65.80-26L68.40-26.60L68.40-2Z M75.92 0L75.92 0ZM76.40-19.96L79.00-20.44L79.00 0L76.40 0L76.40-19.96ZM77.80-24.12Q76.68-24.12 76.30-24.48Q75.92-24.84 75.92-25.88L75.92-25.88Q75.92-26.96 76.30-27.34Q76.68-27.72 77.80-27.72L77.80-27.72Q78.84-27.72 79.20-27.34Q79.56-26.96 79.56-25.88L79.56-25.88Q79.56-24.84 79.22-24.48Q78.88-24.12 77.80-24.12L77.80-24.12Z M87.32 0L87.32-20L88.40-20L89.16-18Q90.60-19.20 92.30-19.76Q94.00-20.32 96.40-20.32L96.40-20.32Q101.96-20.32 101.96-17.36L101.96-17.36L101.96 0L99.36 0L99.36-18.20L93.96-18.20Q92.32-18.20 91.48-17.96Q90.64-17.72 90.28-17.16Q89.92-16.60 89.92-15.48L89.92-15.48L89.92 0L87.32 0Z M115.36-2.32Q118.84-1.96 120.34-1.58Q121.84-1.20 122.36-0.46Q122.88 0.28 122.88 1.84L122.88 1.84Q122.88 3.64 122.18 4.64Q121.48 5.64 119.88 6.06Q118.28 6.48 115.36 6.48L115.36 6.48Q113.28 6.48 111.36 6.16Q109.44 5.84 108.28 5.32L108.28 5.32L108.64 3.16Q110.80 3.68 112.16 3.88Q113.52 4.08 114.96 4.08L114.96 4.08Q116.88 4.08 118.18 3.96Q119.48 3.84 120.60 3.56L120.60 3.56L120.60 0.08Q116.40-0.16 114.66-0.54Q112.92-0.92 112.92-1.56L112.92-1.56L113.92-5.92Q111.60-6.04 110.32-6.76Q109.04-7.48 108.52-8.98Q108.00-10.48 108.00-13.20L108.00-13.20Q108.00-16.12 108.64-17.70Q109.28-19.28 110.84-19.94Q112.40-20.60 115.32-20.60L115.32-20.60Q118.72-20.60 120.24-19.72L120.24-19.72L122.92-21.76L124.28-20.36L121.96-17.88Q122.68-16.32 122.68-13.20L122.68-13.20Q122.68-10.32 122.06-8.78Q121.44-7.24 119.92-6.58Q118.40-5.92 115.60-5.88L115.60-5.88L115.36-2.32ZM110.68-15.56L110.68-8L116.52-8Q118.48-8 119.22-8.64Q119.96-9.28 119.96-10.92L119.96-10.92L119.96-18.48L114.16-18.48Q112.20-18.48 111.44-17.84Q110.68-17.20 110.68-15.56L110.68-15.56Z M136.36 0.32Q132.80 0.32 131.16-0.46Q129.52-1.24 128.94-3.34Q128.36-5.44 128.36-10L128.36-10Q128.36-14.56 128.94-16.66Q129.52-18.76 131.16-19.54Q132.80-20.32 136.36-20.32L136.36-20.32Q139.96-20.32 141.60-19.56Q143.24-18.80 143.80-16.70Q144.36-14.60 144.36-10L144.36-10Q144.36-5.44 143.78-3.34Q143.20-1.24 141.56-0.46Q139.92 0.32 136.36 0.32L136.36 0.32ZM131.00-2L139.76-2Q141.00-2 141.40-2.18Q141.80-2.36 141.80-2.96L141.80-2.96L141.80-18L133.04-18Q131.80-18 131.40-17.82Q131.00-17.64 131.00-17.04L131.00-17.04L131.00-2Z M149.76-14.92Q149.76-17.84 151.48-19.22Q153.20-20.60 156.84-20.60L156.84-20.60Q159.88-20.60 162.80-19.72L162.80-19.72L162.36-17.72Q161.32-18 159.92-18.20Q158.52-18.40 157.40-18.40L157.40-18.40Q154.88-18.40 152.44-18.04L152.44-18.04L152.44-12.16Q157.64-11.40 159.94-10.72Q162.24-10.04 163.02-8.90Q163.80-7.76 163.80-5.44L163.80-5.44Q163.80-3.20 163.06-1.88Q162.32-0.56 160.62 0.02Q158.92 0.60 156.00 0.60L156.00 0.60Q153.08 0.60 149.28-0.48L149.28-0.48L149.80-2.80Q152.92-1.60 156.40-1.60L156.40-1.60Q157.88-1.60 158.84-1.72Q159.80-1.84 161.16-2.24L161.16-2.24L161.16-8.08Q155.52-8.96 153.32-9.60Q151.12-10.24 150.44-11.32Q149.76-12.40 149.76-14.92L149.76-14.92Z"/></g>
</svg>
</g></svg>